<?xml version="1.0" encoding="utf-8"?>
<!-- Generator: Adobe Illustrator 23.0.1, SVG Export Plug-In . SVG Version: 6.00 Build 0)  -->
<svg version="1.1" id="Layer_1" xmlns="http://www.w3.org/2000/svg" xmlns:xlink="http://www.w3.org/1999/xlink" x="0px" y="0px"
	 viewBox="0 0 7.4 1.6" style="enable-background:new 0 0 7.4 1.6;" xml:space="preserve">
<style type="text/css">
	.st0{fill:none;}
	.st1{enable-background:new    ;}
	.st2{fill:#1D3775;}
</style>
<rect x="-9.9" y="-3.4" class="st0" width="4.5" height="0.9"/>
<g class="st1">
	<path class="st2" d="M1,0.5L1,0.5C1.1,0.6,1.1,0.6,1,0.5l0.1,0c0,0,0,0,0,0c0,0,0,0,0,0c0,0,0,0,0,0c0.1,0,0.2,0.1,0.2,0.2
		C1.4,0.9,1.3,1,1.2,1l0,0C1.1,1,1,1,1,1c0,0,0,0,0,0c0,0,0-0.2,0-0.2C1,0.7,1,0.7,1,0.5C1,0.6,1,0.6,1,0.5C1,0.6,1,0.6,1,0.5L1,0.5
		z M1,0.9L1,0.9C1,0.9,1,0.9,1,0.9L1,0.9z M1,0.6C1,0.6,1,0.6,1,0.6L1,0.6z M1.2,0.7C1.2,0.6,1.2,0.6,1.2,0.7
		C1.1,0.6,1.1,0.6,1.2,0.7C1.1,0.7,1.1,0.7,1.2,0.7c0,0.1-0.1,0.2-0.1,0.3c0,0,0.1-0.1,0.1-0.1C1.2,0.8,1.2,0.8,1.2,0.7
		C1.2,0.7,1.2,0.7,1.2,0.7z"/>
	<path class="st2" d="M1.9,1.1c0,0-0.1,0-0.1,0l0,0l0,0c0,0-0.1,0-0.1,0l0,0l0,0c0,0,0,0,0,0.1c0,0,0,0,0,0c0,0,0,0,0,0
		c0,0,0.1,0,0.1,0c0,0,0,0,0,0C1.7,1.1,1.8,1.1,1.9,1.1C1.8,1.1,1.8,1.1,1.9,1.1L1.9,1.1C1.8,1.1,1.8,1.1,1.9,1.1
		C1.9,1.1,1.9,1.1,1.9,1.1c0,0.1-0.1,0.1-0.1,0.1c0,0-0.1,0-0.1,0c0,0,0,0,0,0c0,0,0,0,0,0c-0.1-0.1-0.1,0-0.2-0.1c0,0,0,0,0,0
		c0-0.1,0.1-0.2,0.2-0.2c0,0,0.1,0,0.1,0C1.8,1,1.9,0.9,1.9,1.1L1.9,1.1z M1.5,1C1.5,1,1.5,1,1.5,1L1.5,1L1.5,1
		C1.5,1.1,1.5,1.1,1.5,1L1.5,1L1.5,1C1.5,1.1,1.5,1.1,1.5,1z M1.5,1L1.5,1C1.5,1,1.5,1,1.5,1C1.5,1,1.5,1,1.5,1z M1.5,1
		C1.5,1,1.5,1,1.5,1L1.5,1z M1.5,1.1C1.5,1.1,1.5,1.1,1.5,1.1L1.5,1.1z M1.5,1L1.5,1C1.5,1,1.5,1,1.5,1L1.5,1z M1.5,1.1
		C1.5,1.1,1.5,1.1,1.5,1.1L1.5,1.1z M1.5,1.1L1.5,1.1C1.5,1.1,1.5,1.1,1.5,1.1C1.5,1.1,1.5,1.1,1.5,1.1z M1.5,1
		C1.5,1.1,1.5,1.1,1.5,1L1.5,1z M1.7,0.9C1.7,0.9,1.7,0.9,1.7,0.9c-0.1,0-0.1,0-0.1,0c0,0,0,0,0,0.1C1.6,1,1.6,1,1.7,0.9
		C1.7,1,1.7,1,1.7,0.9L1.7,0.9C1.7,1,1.7,1,1.7,0.9z M1.7,1C1.7,1,1.7,1,1.7,1L1.7,1z M1.8,1C1.8,1,1.8,1,1.8,1C1.8,1,1.8,1,1.8,1z
		 M1.8,1.1C1.8,1.1,1.8,1.1,1.8,1.1C1.8,1.1,1.8,1.1,1.8,1.1z M1.8,1C1.8,1,1.8,1,1.8,1L1.8,1z M1.8,1.1C1.8,1.1,1.8,1.1,1.8,1.1
		C1.8,1.1,1.8,1.1,1.8,1.1z"/>
	<path class="st2" d="M2.3,1.1c0,0-0.1,0-0.1,0l0,0l0,0c0,0-0.1,0-0.1,0l0,0l0,0c0,0,0,0,0,0.1c0,0,0,0,0,0c0,0,0,0,0,0
		c0,0,0.1,0,0.1,0c0,0,0,0,0,0C2.2,1.1,2.2,1.1,2.3,1.1C2.3,1.1,2.3,1.1,2.3,1.1L2.3,1.1C2.3,1.1,2.3,1.1,2.3,1.1
		C2.3,1.1,2.3,1.1,2.3,1.1c0,0.1-0.1,0.1-0.1,0.1c0,0-0.1,0-0.1,0c0,0,0,0,0,0c0,0,0,0,0,0C2,1.1,1.9,1.2,1.9,1.1c0,0,0,0,0,0
		c0-0.1,0.1-0.2,0.2-0.2c0,0,0.1,0,0.1,0C2.3,1,2.3,0.9,2.3,1.1L2.3,1.1z M2,1C2,1,2,1,2,1L2,1L2,1C2,1.1,2,1.1,2,1L2,1L2,1
		C2,1.1,2,1.1,2,1z M2,1L2,1C2,1,2,1,2,1C2,1,2,1,2,1z M2,1C2,1,2,1,2,1L2,1z M2,1.1C2,1.1,2,1.1,2,1.1L2,1.1z M2,1L2,1C2,1,2,1,2,1
		L2,1z M2,1.1C2,1.1,2,1.1,2,1.1L2,1.1z M2,1.1L2,1.1C2,1.1,2,1.1,2,1.1C2,1.1,2,1.1,2,1.1z M2,1C2,1.1,2,1.1,2,1L2,1z M2.2,0.9
		C2.2,0.9,2.1,0.9,2.2,0.9c-0.1,0-0.1,0-0.1,0c0,0,0,0,0,0.1C2.1,1,2.1,1,2.2,0.9C2.2,1,2.2,1,2.2,0.9L2.2,0.9C2.2,1,2.2,1,2.2,0.9z
		 M2.2,1C2.2,1,2.2,1,2.2,1L2.2,1z M2.2,1C2.2,1,2.2,1,2.2,1C2.2,1,2.2,1,2.2,1z M2.2,1.1C2.2,1.1,2.2,1.1,2.2,1.1
		C2.2,1.1,2.2,1.1,2.2,1.1z M2.3,1C2.3,1,2.3,1,2.3,1L2.3,1z M2.3,1.1C2.3,1.1,2.3,1.1,2.3,1.1C2.3,1.1,2.3,1.1,2.3,1.1z"/>
	<path class="st2" d="M2.6,1.1C2.6,1.1,2.6,1.1,2.6,1.1C2.5,1.1,2.5,1.1,2.6,1.1C2.5,1.1,2.5,1.1,2.6,1.1C2.5,1.1,2.5,1.1,2.6,1.1
		c-0.1,0-0.1,0.1-0.1,0.1c0,0,0,0,0,0c0,0,0,0,0,0c0,0,0,0,0,0c0,0,0,0,0,0c0-0.1,0-0.1,0-0.2c0,0,0,0,0,0l0,0c0,0,0,0,0,0
		c0,0,0,0,0-0.1c0,0,0-0.1,0-0.1c0,0,0,0,0,0c0,0,0,0,0.1,0c0,0,0,0,0.1,0c0,0,0,0,0,0c0.1,0,0.1,0.1,0.1,0.1c0,0,0,0,0,0
		c0,0,0,0.1,0,0.1C2.6,1,2.6,1,2.6,1.1C2.6,1.1,2.6,1.1,2.6,1.1z M2.4,1L2.4,1C2.4,1,2.4,1,2.4,1L2.4,1z M2.4,1.1
		C2.4,1.1,2.4,1.1,2.4,1.1C2.4,1.1,2.4,1.1,2.4,1.1L2.4,1.1z M2.4,0.9C2.4,0.9,2.4,0.9,2.4,0.9C2.4,0.9,2.4,0.9,2.4,0.9z M2.4,0.9
		L2.4,0.9C2.4,0.9,2.4,0.9,2.4,0.9z M2.4,1.1L2.4,1.1C2.4,1.1,2.4,1.1,2.4,1.1L2.4,1.1z M2.4,0.8L2.4,0.8L2.4,0.8
		C2.4,0.8,2.4,0.8,2.4,0.8z M2.4,1C2.4,1,2.4,1,2.4,1L2.4,1z M2.4,1.2L2.4,1.2C2.5,1.2,2.5,1.2,2.4,1.2L2.4,1.2z M2.5,0.8
		C2.5,0.8,2.5,0.8,2.5,0.8L2.5,0.8z M2.6,0.9C2.5,0.9,2.5,0.8,2.6,0.9C2.5,0.8,2.5,0.8,2.6,0.9C2.5,0.8,2.5,0.8,2.6,0.9
		C2.5,0.9,2.5,0.9,2.6,0.9C2.5,1,2.5,1,2.5,1c0,0,0,0,0,0c0,0,0,0,0,0c0,0,0,0,0,0C2.6,1.1,2.5,1,2.6,0.9L2.6,0.9z M2.6,1
		C2.6,1,2.6,1,2.6,1C2.6,1,2.6,1,2.6,1z M2.6,0.8C2.6,0.8,2.6,0.8,2.6,0.8L2.6,0.8z M2.6,1C2.6,1,2.6,1,2.6,1L2.6,1z M2.6,1
		C2.6,1,2.6,1,2.6,1L2.6,1z"/>
	<path class="st2" d="M2.9,1.2C2.8,1.2,2.8,1.1,2.9,1.2C2.8,1.1,2.8,1.2,2.9,1.2c-0.1,0-0.2,0-0.2-0.1c0-0.1,0.1-0.1,0.1-0.1
		c0,0,0,0,0,0c0,0,0-0.1,0-0.1c0,0,0,0,0,0c0,0,0,0.1-0.1,0.1c0,0,0,0,0-0.1c0,0,0.1-0.1,0.1-0.1c0.1,0,0.1,0.2,0.1,0.2
		c0,0,0,0.1,0,0.1C2.9,1,2.9,1.1,2.9,1.2C2.9,1.1,2.9,1.1,2.9,1.2C2.9,1.1,2.9,1.2,2.9,1.2z M2.7,1C2.7,1,2.8,1,2.7,1
		C2.7,1,2.7,1,2.7,1C2.7,1.1,2.8,1.1,2.7,1C2.7,1.1,2.7,1.1,2.7,1z M2.7,0.8C2.7,0.8,2.7,0.8,2.7,0.8C2.7,0.8,2.8,0.7,2.7,0.8
		C2.8,0.7,2.7,0.8,2.7,0.8z M2.8,1C2.8,1,2.8,1,2.8,1c-0.1,0.1,0,0.1,0,0.2c0,0,0,0,0,0C2.8,1.1,2.8,1,2.8,1C2.8,1,2.8,1,2.8,1z
		 M2.9,1.1l0-0.3c0,0,0,0,0,0l0,0c0,0,0,0,0,0c0,0,0,0.1,0,0.1c0,0,0,0.1,0,0.1l0,0C2.8,1,2.8,1,2.9,1.1C2.8,1.1,2.8,1.1,2.9,1.1
		C2.8,1.1,2.8,1.1,2.9,1.1C2.9,1.1,2.9,1.1,2.9,1.1C2.9,1.1,2.9,1.1,2.9,1.1z"/>
	<path class="st2" d="M3.2,1.1L3.2,1.1C3.2,1.2,3.2,1.2,3.2,1.1C3.1,1.2,3.1,1.2,3.2,1.1L3.2,1.1C3.1,1.1,3.1,1.1,3.2,1.1
		C3.1,1.1,3.1,1,3.1,1c0,0,0,0.1,0,0.1v0l0,0v0c0,0-0.1,0-0.1,0c0,0,0,0,0,0c0,0,0-0.1,0-0.2c0,0,0-0.1,0-0.1V0.7c0,0,0,0,0,0
		c0,0,0,0,0,0c0,0,0,0,0,0c0,0,0,0,0,0c0,0,0,0,0,0c0,0.1,0,0.2,0,0.3c0,0,0,0,0,0.1c0,0,0.1-0.1,0.1-0.1c0,0,0,0,0,0l0,0
		c0,0,0,0,0,0c0,0,0,0,0.1,0c0,0,0,0,0,0c0,0,0,0,0,0c0,0-0.1,0.1-0.1,0.1C3.1,1,3.1,1.1,3.2,1.1z M3,1L3,1L3,1L3,1L3,1L3,1z M3,0.9
		C3,0.9,3,0.9,3,0.9L3,0.9L3,0.9z M3,1L3,1C3,1,3,1,3,1L3,1L3,1z M3,1.1C3,1.1,3,1.1,3,1.1L3,1.1C3,1.1,3,1.1,3,1.1z M3,1L3,1L3,1
		L3,1L3,1z M3,1C3,1,3,1,3,1L3,1z"/>
	<path class="st2" d="M3.5,1.1L3.5,1.1c0,0-0.1,0-0.1,0l0,0l0,0v0c0,0,0,0,0,0L3.5,1.1L3.5,1.1L3.4,0.9c0-0.1,0-0.2,0-0.2
		c0,0,0,0,0,0c0,0,0,0,0,0c0,0,0,0,0,0l0,0c0,0,0.2,0,0.2,0c0,0,0,0,0.1,0h0l0,0c0,0,0,0,0,0c0,0,0,0,0.1,0c0,0,0.1,0,0.1,0.1
		c0,0,0,0.1-0.1,0.1v0c0,0,0,0,0,0c0,0,0.1,0.1,0.1,0.1c0,0,0,0.1,0,0.1c0,0,0,0-0.1,0c0,0,0,0,0,0c0,0,0,0,0,0
		C3.7,1.1,3.6,1.1,3.5,1.1C3.6,1.1,3.5,1.1,3.5,1.1L3.5,1.1z M3.5,0.7C3.5,0.7,3.5,0.7,3.5,0.7C3.5,0.7,3.5,0.7,3.5,0.7z M3.5,0.7
		C3.5,0.7,3.5,0.7,3.5,0.7L3.5,0.7z M3.5,0.7C3.5,0.7,3.5,0.7,3.5,0.7C3.5,0.7,3.5,0.7,3.5,0.7C3.5,0.7,3.5,0.7,3.5,0.7z M3.5,0.7
		L3.5,0.7L3.5,0.7L3.5,0.7L3.5,0.7C3.5,0.7,3.5,0.7,3.5,0.7L3.5,0.7z M3.6,0.9L3.6,0.9C3.5,0.9,3.5,0.9,3.6,0.9z M3.6,1
		C3.6,1,3.6,1,3.6,1L3.6,1z M3.6,1L3.6,1L3.6,1C3.6,1,3.6,1,3.6,1L3.6,1z M3.6,0.8L3.6,0.8C3.7,0.8,3.7,0.7,3.6,0.8
		C3.7,0.7,3.7,0.7,3.6,0.8c0.1-0.1,0-0.2,0-0.2C3.6,0.7,3.6,0.7,3.6,0.8z M3.6,0.8L3.6,0.8L3.6,0.8L3.6,0.8c0,0.1,0,0.1,0,0.2
		c0,0,0,0,0,0l0,0c0,0,0,0,0,0C3.7,1,3.7,1,3.6,0.8C3.7,0.9,3.7,0.8,3.6,0.8z M3.7,1L3.7,1C3.8,1,3.7,1,3.7,1L3.7,1z"/>
	<path class="st2" d="M4.3,1.1C4.3,1.1,4.3,1.1,4.3,1.1L4.3,1.1c-0.1,0-0.1,0-0.1,0c0,0,0,0,0,0l0,0c0,0,0,0,0,0c0,0,0-0.1,0-0.1
		c0-0.1,0-0.1-0.1-0.1c0,0,0,0,0,0C4.1,0.9,4.1,1,4.1,1c0,0,0,0,0,0.1c0,0,0,0,0.1,0l0,0l0,0c0,0,0,0,0,0c0,0,0,0-0.1,0
		c0,0-0.1,0-0.1,0l0,0c0,0,0,0,0,0c0,0,0,0,0,0C4,1.1,4,1,4,1c0,0,0-0.1,0-0.1c0,0,0,0,0-0.1c0,0,0,0,0,0c0-0.1,0-0.1-0.1-0.1l0,0
		l0,0c0,0,0,0,0,0l0,0l0,0c0,0,0,0,0.1,0l0,0c0,0,0,0,0,0c0,0,0,0.1,0,0.1c0,0,0,0.1,0,0.1c0,0,0-0.1,0.1-0.1c0.1,0,0.1,0.1,0.1,0.2
		c0,0,0,0,0,0C4.3,1.1,4.3,1.1,4.3,1.1C4.3,1.1,4.3,1.1,4.3,1.1L4.3,1.1C4.4,1.1,4.3,1.1,4.3,1.1z"/>
	<path class="st2" d="M4.6,1.2C4.5,1.2,4.5,1.1,4.6,1.2C4.5,1.1,4.5,1.2,4.6,1.2c-0.1,0-0.2,0-0.2-0.1c0-0.1,0.1-0.1,0.1-0.1
		c0,0,0,0,0,0c0,0,0-0.1,0-0.1c0,0,0,0,0,0c0,0,0,0.1-0.1,0.1c0,0,0,0,0-0.1c0,0,0.1-0.1,0.1-0.1c0.1,0,0.1,0.2,0.1,0.2
		c0,0,0,0.1,0,0.1C4.6,1,4.6,1.1,4.6,1.2C4.6,1.1,4.6,1.1,4.6,1.2C4.6,1.1,4.6,1.2,4.6,1.2z M4.4,1C4.4,1,4.4,1,4.4,1
		C4.4,1,4.4,1,4.4,1C4.4,1.1,4.4,1.1,4.4,1C4.4,1.1,4.4,1.1,4.4,1z M4.4,0.8C4.4,0.8,4.4,0.8,4.4,0.8C4.4,0.8,4.5,0.7,4.4,0.8
		C4.4,0.7,4.4,0.8,4.4,0.8z M4.5,1C4.5,1,4.4,1,4.5,1c-0.1,0.1,0,0.1,0,0.2c0,0,0,0,0,0C4.5,1.1,4.5,1,4.5,1C4.5,1,4.5,1,4.5,1z
		 M4.5,1.1l0-0.3c0,0,0,0,0,0l0,0c0,0,0,0,0,0c0,0,0,0.1,0,0.1c0,0,0,0.1,0,0.1l0,0C4.5,1,4.5,1,4.5,1.1C4.5,1.1,4.5,1.1,4.5,1.1
		C4.5,1.1,4.5,1.1,4.5,1.1C4.6,1.1,4.6,1.1,4.5,1.1C4.6,1.1,4.5,1.1,4.5,1.1z"/>
	<path class="st2" d="M4.8,1.2C4.8,1.2,4.8,1.2,4.8,1.2c-0.1,0-0.1-0.1-0.1-0.1c0-0.1,0-0.1,0-0.2c0,0,0-0.1,0-0.1c0,0,0,0,0,0
		c0,0,0,0,0,0c0,0,0,0,0,0c0,0,0-0.1,0-0.1l0,0l0,0c0,0,0,0.1,0,0.1l0,0c0,0,0,0,0.1,0l0,0c0,0,0,0,0,0c0,0,0,0,0,0l0,0c0,0,0,0,0,0
		c0,0,0,0,0,0c0,0.1,0,0.1,0,0.2C4.7,1.1,4.7,1.2,4.8,1.2C4.8,1.2,4.8,1.2,4.8,1.2c0-0.1,0-0.1,0-0.1c0,0,0-0.1,0-0.1l0,0
		c0,0,0,0.1,0,0.1C4.9,1.2,4.8,1.2,4.8,1.2z M4.7,0.9C4.7,0.9,4.7,0.9,4.7,0.9L4.7,0.9z M4.7,1L4.7,1C4.7,1,4.7,1,4.7,1z M4.7,0.9
		C4.7,0.9,4.7,1,4.7,0.9C4.7,0.9,4.7,0.9,4.7,0.9z M4.7,1.1C4.7,1.1,4.7,1.1,4.7,1.1L4.7,1.1z M4.7,0.8C4.7,0.8,4.7,0.8,4.7,0.8
		L4.7,0.8z"/>
	<path class="st2" d="M5.1,1.2C5,1.2,5,1.2,5.1,1.2C5,1.2,5,1.1,5,1.1C5,1,5,1,5,0.9c0,0,0-0.1,0-0.1c0,0,0,0,0,0c0,0,0,0,0,0
		c0,0,0,0,0,0c0,0,0-0.1,0-0.1l0,0l0,0c0,0,0,0.1,0,0.1l0,0c0,0,0,0,0.1,0l0,0c0,0,0,0,0,0c0,0,0,0,0,0l0,0c0,0,0,0,0,0c0,0,0,0,0,0
		C5,0.9,5,1,5,1C5,1.1,5,1.2,5.1,1.2C5.1,1.2,5.1,1.2,5.1,1.2c0-0.1,0-0.1,0-0.1c0,0,0-0.1,0-0.1l0,0c0,0,0,0.1,0,0.1
		C5.1,1.2,5.1,1.2,5.1,1.2z M5,0.9C5,0.9,5,0.9,5,0.9L5,0.9z M5,1L5,1C5,1,5,1,5,1z M5,0.9C5,0.9,5,1,5,0.9C5,0.9,5,0.9,5,0.9z
		 M5,1.1C5,1.1,5,1.1,5,1.1L5,1.1z M5,0.8C5,0.8,5,0.8,5,0.8L5,0.8z"/>
	<path class="st2" d="M5.4,1.2C5.4,1.2,5.3,1.1,5.4,1.2C5.3,1.1,5.3,1.2,5.4,1.2c-0.1,0-0.2,0-0.2-0.1c0-0.1,0.1-0.1,0.1-0.1
		c0,0,0,0,0,0c0,0,0-0.1,0-0.1c0,0,0,0,0,0c0,0,0,0.1-0.1,0.1c0,0,0,0,0-0.1c0,0,0.1-0.1,0.1-0.1c0.1,0,0.1,0.2,0.1,0.2
		c0,0,0,0.1,0,0.1C5.4,1,5.4,1.1,5.4,1.2C5.4,1.1,5.4,1.1,5.4,1.2C5.4,1.1,5.4,1.2,5.4,1.2z M5.2,1C5.2,1,5.3,1,5.2,1
		C5.2,1,5.2,1,5.2,1C5.2,1.1,5.3,1.1,5.2,1C5.2,1.1,5.2,1.1,5.2,1z M5.2,0.8C5.2,0.8,5.2,0.8,5.2,0.8C5.3,0.8,5.3,0.7,5.2,0.8
		C5.3,0.7,5.2,0.8,5.2,0.8z M5.3,1C5.3,1,5.3,1,5.3,1c-0.1,0.1,0,0.1,0,0.2c0,0,0,0,0,0C5.3,1.1,5.3,1,5.3,1C5.3,1,5.3,1,5.3,1z
		 M5.4,1.1l0-0.3c0,0,0,0,0,0l0,0c0,0,0,0,0,0c0,0,0,0.1,0,0.1c0,0,0,0.1,0,0.1l0,0C5.3,1,5.3,1,5.4,1.1C5.3,1.1,5.3,1.1,5.4,1.1
		C5.3,1.1,5.4,1.1,5.4,1.1C5.4,1.1,5.4,1.1,5.4,1.1C5.4,1.1,5.4,1.1,5.4,1.1z"/>
	<path class="st2" d="M5.8,0.9L5.8,0.9C5.8,0.9,5.8,0.9,5.8,0.9C5.7,0.9,5.7,0.9,5.8,0.9c-0.1,0-0.1,0-0.1-0.1s0,0,0,0c0,0,0,0,0,0
		c0,0,0,0.1,0,0.1c0,0,0,0,0,0c0,0,0,0,0,0c0,0,0,0,0,0c0,0,0,0.1,0,0.1c0,0,0,0,0,0c0,0,0,0,0,0c0,0,0,0,0,0c0,0,0,0,0,0l0,0
		c0,0-0.1,0-0.1,0c0,0,0,0-0.1,0c0,0,0,0,0,0c0,0,0,0,0,0c0,0,0,0,0-0.1c0,0,0,0,0.1,0l0-0.2c0,0,0,0,0,0c0,0,0,0,0,0c0,0,0,0,0,0
		c0,0,0-0.1,0-0.1c0,0,0,0,0,0l0,0c0,0,0,0,0,0c0,0,0,0,0,0c0,0,0,0,0.1,0l0,0c0,0,0,0,0,0c0,0,0,0,0,0c0,0,0-0.1,0.1-0.1
		C5.8,0.8,5.8,0.8,5.8,0.9C5.8,0.9,5.8,0.9,5.8,0.9z M5.5,0.8C5.5,0.8,5.5,0.8,5.5,0.8C5.5,0.8,5.5,0.8,5.5,0.8L5.5,0.8z M5.5,1.1
		C5.5,1.1,5.5,1.1,5.5,1.1C5.5,1.1,5.5,1.1,5.5,1.1z M5.5,0.8C5.6,0.8,5.6,0.8,5.5,0.8L5.5,0.8z M5.6,0.8C5.6,0.8,5.6,0.8,5.6,0.8
		L5.6,0.8z M5.6,0.8L5.6,0.8C5.6,0.8,5.6,0.8,5.6,0.8z M5.6,1L5.6,1L5.6,1C5.6,1,5.6,1,5.6,1L5.6,1C5.6,1,5.6,1,5.6,1
		C5.6,1.1,5.6,1.1,5.6,1C5.6,1,5.6,1.1,5.6,1C5.6,1,5.6,1,5.6,1z M5.6,1.1C5.6,1.1,5.6,1.1,5.6,1.1L5.6,1.1z M5.6,0.8L5.6,0.8
		L5.6,0.8C5.6,0.8,5.6,0.8,5.6,0.8C5.6,0.8,5.6,0.8,5.6,0.8C5.6,0.8,5.6,0.8,5.6,0.8z M5.6,0.9L5.6,0.9C5.6,0.9,5.6,0.9,5.6,0.9
		C5.6,0.9,5.6,0.9,5.6,0.9z M5.6,0.9C5.6,0.9,5.6,0.9,5.6,0.9C5.6,0.9,5.6,0.9,5.6,0.9L5.6,0.9z M5.6,0.9L5.6,0.9
		C5.6,0.9,5.6,1,5.6,0.9L5.6,0.9z M5.6,1C5.6,1,5.6,1,5.6,1L5.6,1z M5.6,0.9C5.6,0.9,5.6,0.9,5.6,0.9C5.6,0.9,5.6,0.9,5.6,0.9
		L5.6,0.9z M5.6,1L5.6,1C5.6,1,5.6,1,5.6,1L5.6,1z M5.6,1C5.6,1,5.6,1,5.6,1C5.6,1,5.6,1,5.6,1C5.6,1,5.6,1,5.6,1z M5.6,1L5.6,1
		C5.6,1,5.6,1,5.6,1z M5.6,0.8L5.6,0.8L5.6,0.8C5.6,0.8,5.6,0.8,5.6,0.8z M5.6,0.9C5.6,0.9,5.6,0.9,5.6,0.9L5.6,0.9z M5.6,0.9
		C5.6,0.9,5.6,0.9,5.6,0.9C5.6,0.9,5.6,0.9,5.6,0.9z M5.6,1C5.6,1,5.6,1,5.6,1L5.6,1C5.6,1,5.6,1,5.6,1z M5.6,1C5.6,1,5.6,1,5.6,1
		L5.6,1L5.6,1L5.6,1z M5.6,0.8C5.6,0.8,5.6,0.8,5.6,0.8C5.6,0.8,5.6,0.8,5.6,0.8z M5.6,0.8C5.6,0.9,5.6,0.9,5.6,0.8
		C5.6,0.8,5.6,0.8,5.6,0.8z M5.6,0.9C5.6,0.9,5.6,0.9,5.6,0.9L5.6,0.9z M5.6,1C5.6,1,5.6,1,5.6,1C5.6,1,5.6,1,5.6,1L5.6,1z M5.6,0.8
		C5.6,0.8,5.6,0.8,5.6,0.8L5.6,0.8z M5.7,0.8C5.7,0.8,5.7,0.8,5.7,0.8C5.7,0.8,5.7,0.8,5.7,0.8C5.7,0.8,5.7,0.8,5.7,0.8L5.7,0.8
		L5.7,0.8L5.7,0.8C5.7,0.8,5.7,0.8,5.7,0.8z M5.8,0.8C5.7,0.8,5.7,0.8,5.8,0.8C5.8,0.8,5.8,0.8,5.8,0.8C5.8,0.8,5.8,0.8,5.8,0.8
		L5.8,0.8z M5.8,0.9L5.8,0.9C5.8,0.9,5.8,0.9,5.8,0.9C5.8,0.9,5.8,0.9,5.8,0.9L5.8,0.9L5.8,0.9C5.8,0.9,5.8,0.9,5.8,0.9z M5.8,0.9
		C5.8,0.9,5.8,0.9,5.8,0.9C5.8,0.8,5.8,0.8,5.8,0.9z"/>
	<path class="st2" d="M6.1,1.2C6,1.2,6,1.1,6.1,1.2C6,1.1,6,1.2,6.1,1.2c-0.1,0-0.2,0-0.2-0.1C5.9,1,5.9,0.9,6,0.9c0,0,0,0,0,0
		c0,0,0-0.1,0-0.1c0,0,0,0,0,0c0,0,0,0.1-0.1,0.1c0,0,0,0,0-0.1c0,0,0.1-0.1,0.1-0.1c0.1,0,0.1,0.2,0.1,0.2c0,0,0,0.1,0,0.1
		C6.1,1,6.1,1.1,6.1,1.2C6.1,1.1,6.1,1.1,6.1,1.2C6.1,1.1,6.1,1.2,6.1,1.2z M5.9,1C5.9,1,6,1,5.9,1C5.9,1,5.9,1,5.9,1
		C5.9,1.1,6,1.1,5.9,1C5.9,1.1,5.9,1.1,5.9,1z M5.9,0.8C5.9,0.8,5.9,0.8,5.9,0.8C5.9,0.8,6,0.7,5.9,0.8C6,0.7,5.9,0.8,5.9,0.8z M6,1
		C6,1,6,1,6,1C6,1.1,6,1.1,6,1.1c0,0,0,0,0,0C6,1.1,6,1,6,1C6,1,6,1,6,1z M6.1,1.1l0-0.3c0,0,0,0,0,0l0,0c0,0,0,0,0,0
		c0,0,0,0.1,0,0.1c0,0,0,0.1,0,0.1l0,0C6,1,6,1,6.1,1.1C6,1.1,6,1.1,6.1,1.1C6,1.1,6,1.1,6.1,1.1C6.1,1.1,6.1,1.1,6.1,1.1
		C6.1,1.1,6.1,1.1,6.1,1.1z"/>
	<path class="st2" d="M6.4,1.1C6.4,1.1,6.3,1.1,6.4,1.1C6.3,1.1,6.3,1.1,6.4,1.1c-0.1,0-0.2,0-0.2,0c0,0,0,0,0,0l0,0l0,0
		c0,0,0,0,0,0c0-0.2,0-0.2,0-0.2c0,0,0,0,0-0.1c0,0,0,0,0,0c0,0,0,0,0,0c0,0,0,0,0,0c0,0,0,0,0,0c0,0,0,0,0,0l0,0c0,0,0,0,0.1,0l0,0
		c0,0,0,0,0,0c0,0,0,0.1,0,0.1c0,0,0,0.1,0,0.1C6.3,1,6.3,1,6.4,1.1C6.3,1,6.3,1,6.4,1.1C6.3,1,6.4,1,6.4,1.1C6.4,1,6.4,1,6.4,1.1
		L6.4,1.1z M6.3,0.7C6.3,0.7,6.3,0.7,6.3,0.7C6.2,0.7,6.2,0.7,6.3,0.7C6.2,0.7,6.2,0.7,6.3,0.7c-0.1,0-0.1,0-0.1,0c0,0,0,0,0-0.1
		c0,0,0,0,0,0c0,0,0.1,0,0.1,0C6.3,0.6,6.3,0.6,6.3,0.7C6.3,0.7,6.3,0.7,6.3,0.7z M6.2,0.8L6.2,0.8L6.2,0.8C6.2,0.8,6.2,0.8,6.2,0.8
		L6.2,0.8z M6.2,0.9L6.2,0.9C6.2,0.9,6.2,0.9,6.2,0.9C6.2,0.9,6.2,0.9,6.2,0.9L6.2,0.9C6.3,0.9,6.2,0.9,6.2,0.9z M6.2,1L6.2,1
		C6.3,1,6.3,1,6.2,1L6.2,1z M6.2,0.9C6.3,0.9,6.3,0.9,6.2,0.9L6.2,0.9z M6.3,0.9C6.3,0.9,6.3,0.9,6.3,0.9C6.2,0.9,6.2,0.9,6.3,0.9z
		 M6.2,1L6.2,1C6.3,1,6.3,1,6.2,1C6.3,1,6.3,1,6.2,1z M6.2,0.8C6.2,0.8,6.2,0.8,6.2,0.8C6.3,0.8,6.3,0.8,6.2,0.8z M6.3,0.8
		C6.3,0.8,6.3,0.8,6.3,0.8L6.3,0.8z M6.3,0.9C6.3,0.9,6.3,0.9,6.3,0.9L6.3,0.9z M6.3,0.9L6.3,0.9C6.3,0.9,6.3,0.9,6.3,0.9z M6.3,0.8
		L6.3,0.8C6.3,0.8,6.3,0.8,6.3,0.8C6.3,0.8,6.3,0.8,6.3,0.8z M6.3,0.9L6.3,0.9L6.3,0.9C6.3,0.9,6.3,0.9,6.3,0.9
		C6.3,0.9,6.3,0.9,6.3,0.9z M6.3,0.9C6.3,0.9,6.3,0.9,6.3,0.9L6.3,0.9z"/>
</g>
</svg>
